<svg id="Layer_1" data-name="Layer 1" xmlns="http://www.w3.org/2000/svg" viewBox="0 0 1360.941 315.08"><defs><style>.cls-1{fill:#000000;}</style></defs><path class="cls-1" d="M385.3,387.6h-44.83a2.946,2.946,0,0,1-2.94-2.939V373.747a2.948,2.948,0,0,0-2.939-2.94H271.858a2.948,2.948,0,0,0-2.941,2.94v10.912a2.946,2.946,0,0,1-2.941,2.939h-33.7a2.948,2.948,0,0,0-2.94,2.94v12.624a2.947,2.947,0,0,0,2.94,2.939h153.02a2.947,2.947,0,0,0,2.939-2.939V390.538A2.946,2.946,0,0,0,385.3,387.6Z" transform="translate(-69.529 -92.46)"/><path class="cls-1" d="M460.614,92.46H140.72a20.208,20.208,0,0,0-20.185,20.187V165.3c0,6.962-.516,7.946,4.153,7.946H132.7c3.919,0,3.115-.984,3.115-8.075V112.647a4.976,4.976,0,0,1,4.909-4.909H460.614a4.976,4.976,0,0,1,4.908,4.909V309.728H237.457s-8.038-.014-8.038,10.379v24.652c0,10.379,8.3,10.379,8.3,10.379h222.9A20.209,20.209,0,0,0,480.8,334.954V112.647A20.211,20.211,0,0,0,460.614,92.46ZM300.668,337.709a9.1,9.1,0,1,1,9.094-9.1A9.1,9.1,0,0,1,300.668,337.709Z" transform="translate(-69.529 -92.46)"/><path class="cls-1" d="M198.281,191.276H82.557A13.04,13.04,0,0,0,69.529,204.3V394.511A13.042,13.042,0,0,0,82.557,407.54H198.281a13.044,13.044,0,0,0,13.027-13.029V204.3A13.043,13.043,0,0,0,198.281,191.276Zm-72.137,13.287h28.549a2.469,2.469,0,0,1,0,4.938H126.144a2.469,2.469,0,0,1,0-4.938Zm14.1,193.826a6.742,6.742,0,1,1,6.743-6.742A6.742,6.742,0,0,1,140.245,398.389Zm59.87-19.816a3.136,3.136,0,0,1-3.091,3.161H83.817a3.136,3.136,0,0,1-3.091-3.161V220.519a3.135,3.135,0,0,1,3.091-3.16H197.024a3.135,3.135,0,0,1,3.091,3.16Z" transform="translate(-69.529 -92.46)"/><path class="cls-1" d="M146.847,265.555l20.994-.023-35.221,35.2-9.179,9.128L113,299.406Zm-.2,31.432c.273-.359.774-.182,1.154-.228l20.017,0L149.58,314.989l-10.5-10.434Z" transform="translate(-69.529 -92.46)"/><path class="cls-1" d="M128.618,315.007l10.464-10.452,10.5,10.434.044.046-10.539,10.441-10.467-10.469Z" transform="translate(-69.529 -92.46)"/><path class="cls-1" d="M139.085,325.476l10.539-10.441L167.83,333.26c-6.858.015-13.713-.006-20.569.01-.39.087-.632-.27-.881-.491l-7.295-7.3Z" transform="translate(-69.529 -92.46)"/><path class="cls-1" d="M304.355,176.045l20.271-.023-34.01,33.993-8.863,8.814-10.085-10.1Zm-.189,30.351c.263-.348.747-.176,1.115-.221l19.328,0-17.616,17.6L296.856,213.7Z" transform="translate(-69.529 -92.46)"/><path class="cls-1" d="M286.752,223.8l10.1-10.093,10.137,10.075.042.045-10.176,10.082L286.752,223.8Z" transform="translate(-69.529 -92.46)"/><path class="cls-1" d="M296.859,233.905l10.176-10.082,17.581,17.6c-6.622.015-13.242,0-19.862.01-.377.084-.61-.261-.851-.474l-7.044-7.052Z" transform="translate(-69.529 -92.46)"/><path class="cls-1" d="M384.454,128.244H216.869a24.7,24.7,0,0,0-5.558.633,25.063,25.063,0,0,0-19.493,24.418v19.937h12.1V153.295a12.947,12.947,0,0,1,7.4-11.686,12.782,12.782,0,0,1,5.558-1.267H384.454a12.956,12.956,0,0,1,12.938,12.953V264.174a12.955,12.955,0,0,1-12.938,12.953H229.348v12.1H384.454a25.086,25.086,0,0,0,25.052-25.051V153.295A25.076,25.076,0,0,0,384.454,128.244Z" transform="translate(-69.529 -92.46)"/><circle class="cls-1" cx="77.225" cy="26.22" r="4.751"/><circle class="cls-1" cx="92.349" cy="26.22" r="4.751"/><circle class="cls-1" cx="107.473" cy="26.22" r="4.751"/><circle class="cls-1" cx="284.455" cy="61.058" r="4.751"/><circle class="cls-1" cx="299.579" cy="61.058" r="4.751"/><circle class="cls-1" cx="314.702" cy="61.058" r="4.751"/><polygon class="cls-1" points="191.968 150.64 157.602 116.273 191.968 81.907 195.327 85.266 164.32 116.273 195.327 147.281 191.968 150.64"/><polygon class="cls-1" points="270.297 150.64 266.938 147.281 297.945 116.273 266.938 85.266 270.297 81.907 304.663 116.273 270.297 150.64"/><path class="cls-1" d="M543.234,255.6V129.488h96.737v25.7H576.092v27.167h56.169V207.5H576.092V255.6Z" transform="translate(-69.529 -92.46)"/><path class="cls-1" d="M664.566,255.6V129.488h32.858v99.124h64.063V255.6Z" transform="translate(-69.529 -92.46)"/><path class="cls-1" d="M834.177,257.8q-18.173,0-31.3-5.691a42.8,42.8,0,0,1-20.1-17.07q-6.976-11.379-6.974-28.268V129.488h33.04v76.545q0,12.117,6.425,19.091t18.907,6.975q12.48,0,19.091-6.975t6.608-19.091V129.488h32.857v77.281q0,16.89-6.975,28.268a42.876,42.876,0,0,1-20.008,17.07Q852.715,257.8,834.177,257.8Z" transform="translate(-69.529 -92.46)"/><path class="cls-1" d="M955.142,255.6V156.473H914.209V129.488h114.723v26.985H988V255.6Z" transform="translate(-69.529 -92.46)"/><path class="cls-1" d="M1082.715,255.6V156.473h-40.934V129.488h114.725v26.985h-40.934V255.6Z" transform="translate(-69.529 -92.46)"/><path class="cls-1" d="M1179.083,255.6V129.488h104.079v25.7H1211.94v23.678h62.228v25.148H1211.94V229.9h72.507v25.7Z" transform="translate(-69.529 -92.46)"/><path class="cls-1" d="M1310.7,255.6V129.488h73.241q13.947,0,23.313,5.232a34.046,34.046,0,0,1,14.042,14.318,43.64,43.64,0,0,1,4.681,20.283,41.528,41.528,0,0,1-5.6,21.569,38.919,38.919,0,0,1-15.695,14.777L1430.01,255.6H1393.3l-20.926-44.423h-28.82V255.6Zm32.856-68.836h33.96a14.115,14.115,0,0,0,10.922-4.5q4.131-4.5,4.131-12.023a17.951,17.951,0,0,0-1.837-8.443,13.311,13.311,0,0,0-5.14-5.416,15.783,15.783,0,0,0-8.076-1.926h-33.96Z" transform="translate(-69.529 -92.46)"/><path class="cls-1" d="M542.773,369.164V292.09h40.56q7.863,0,13.088,2.862a18.461,18.461,0,0,1,7.809,7.979,25.683,25.683,0,0,1,2.585,11.74,25.266,25.266,0,0,1-3.6,13.708,20.039,20.039,0,0,1-9.887,8.2l16.179,32.584H597.826L582.77,338.489H553.447v30.675Zm10.674-39.775h28.875q6.4,0,10.055-3.931t3.652-10.787a15.016,15.016,0,0,0-1.573-7.189,11.043,11.043,0,0,0-4.607-4.551,15.778,15.778,0,0,0-7.527-1.631H553.447Z" transform="translate(-69.529 -92.46)"/><path class="cls-1" d="M666.586,369.164V292.09h59.322v9.21h-48.65v23.819h43.707v9.213H677.258v25.619h49.324v9.213Z" transform="translate(-69.529 -92.46)"/><path class="cls-1" d="M784.78,369.164V292.09H801.3l17.527,50q.674,2.022,1.4,4.439t1.348,4.552q.618,2.135.956,3.7h.785q.339-1.683.9-3.875t1.235-4.551c.45-1.574.861-2.994,1.237-4.27l17.527-49.995h16.4v77.074H849.946V324q0-3.48.111-7.583t.226-7.527q.109-3.429.111-4.887h-.9c-.224.971-.6,2.341-1.124,4.1s-1.068,3.6-1.629,5.5-1.067,3.614-1.517,5.113l-18.088,50.446h-9.214l-18.089-50.446q-.674-1.91-1.405-4.439t-1.459-5.226q-.734-2.694-1.4-5.053h-.787q.11,2.467.167,6.122t.113,7.3q.054,3.654.057,6.574v45.167Z" transform="translate(-69.529 -92.46)"/><path class="cls-1" d="M956.68,370.512q-12.024,0-20.618-4.383A30.238,30.238,0,0,1,922.8,352.872q-4.662-8.873-4.663-22.245,0-13.486,4.663-22.305a30.324,30.324,0,0,1,13.258-13.2q8.6-4.383,20.618-4.383t20.616,4.383a30.314,30.314,0,0,1,13.258,13.2q4.662,8.821,4.663,22.305,0,13.368-4.663,22.245A30.228,30.228,0,0,1,977.3,366.129Q968.7,370.512,956.68,370.512Zm0-9.213a36.253,36.253,0,0,0,11.4-1.687,20.958,20.958,0,0,0,8.652-5.336,24.371,24.371,0,0,0,5.448-9.213,40.758,40.758,0,0,0,1.911-13.2V329.5a41.171,41.171,0,0,0-1.911-13.314,24.407,24.407,0,0,0-5.448-9.214,21,21,0,0,0-8.652-5.335,39.578,39.578,0,0,0-22.864,0,21.483,21.483,0,0,0-8.651,5.335,23.469,23.469,0,0,0-5.45,9.214,42.344,42.344,0,0,0-1.853,13.314v2.36a41.918,41.918,0,0,0,1.853,13.2,23.437,23.437,0,0,0,5.45,9.213,21.441,21.441,0,0,0,8.651,5.336A36.116,36.116,0,0,0,956.68,361.3Z" transform="translate(-69.529 -92.46)"/><path class="cls-1" d="M1069.032,369.164V301.413h-26.4V292.09h63.7v9.323h-26.627v67.751Z" transform="translate(-69.529 -92.46)"/><path class="cls-1" d="M1160.375,369.164V292.09H1219.7v9.21h-48.65v23.819h43.706v9.213h-43.706v25.619h49.324v9.213Z" transform="translate(-69.529 -92.46)"/><path class="cls-1" d="M1278.569,369.164V292.09h10.673v67.748h38.313v9.326Z" transform="translate(-69.529 -92.46)"/><path class="cls-1" d="M1389.46,369.164V337.141l-30.334-45.051h12.246l23.482,35.615h.561l23.37-35.615h11.686l-30.224,45.051v32.023Z" transform="translate(-69.529 -92.46)"/></svg>